<svg width="32" height="32" viewBox="0 0 32 32" fill="none" xmlns="http://www.w3.org/2000/svg">
  <path
    d="M8.61539 0H2.46154C1.10207 0 0 1.10207 0 2.46154V29.5385C0 30.898 1.10207 32 2.46154 32H8.61539C9.97484 32 11.0769 30.898 11.0769 29.5385V2.46154C11.0769 1.10207 9.97484 0 8.61539 0Z"
    fill="white" />
  <path
    d="M29.5385 0H23.3846C22.0252 0 20.9231 1.10207 20.9231 2.46154V29.5385C20.9231 30.898 22.0252 32 23.3846 32H29.5385C30.898 32 32 30.898 32 29.5385V2.46154C32 1.10207 30.898 0 29.5385 0Z"
    fill="white" />
</svg>
  