<svg width="32" height="32" viewBox="0 0 32 32" fill="none" xmlns="http://www.w3.org/2000/svg">
  <path
    d="M3.2821 28.1827C3.29031 28.659 3.42889 29.1239 3.68277 29.5269C3.93664 29.9299 4.29612 30.2556 4.7221 30.4684C5.1475 30.7089 5.6278 30.8353 6.11639 30.8353C6.60498 30.8353 7.0853 30.7089 7.51068 30.4684L27.2821 18.2399C27.7123 18.0327 28.0752 17.7082 28.3294 17.3039C28.5833 16.8995 28.718 16.4317 28.718 15.9542C28.718 15.4767 28.5833 15.0089 28.3294 14.6045C28.0752 14.2002 27.7123 13.8757 27.2821 13.6685L7.51068 1.53134C7.0853 1.29098 6.60498 1.16467 6.11639 1.16467C5.6278 1.16467 5.1475 1.29098 4.7221 1.53134C4.29612 1.74434 3.93664 2.07003 3.68277 2.47301C3.42889 2.87599 3.29031 3.34085 3.2821 3.81706V28.1827Z"
    fill="white" />
</svg>