<svg width="32" height="32" viewBox="0 0 32 32" fill="none" xmlns="http://www.w3.org/2000/svg">
  <path
    d="M1.14287 23.4972C1.14177 23.788 1.21991 24.0737 1.36892 24.3233C1.51793 24.5731 1.73216 24.7774 1.98859 24.9144C2.24065 25.0654 2.52901 25.1452 2.82288 25.1452C3.11673 25.1452 3.4051 25.0654 3.65717 24.9144L15.2686 17.3716C15.4951 17.2269 15.6816 17.0276 15.8107 16.7919C15.9399 16.5562 16.0076 16.2918 16.0076 16.023C16.0076 15.7542 15.9399 15.4898 15.8107 15.2541C15.6816 15.0184 15.4951 14.819 15.2686 14.6744L3.65717 7.08586C3.4051 6.93477 3.11673 6.85498 2.82288 6.85498C2.52901 6.85498 2.24065 6.93477 1.98859 7.08586C1.73216 7.22293 1.51793 7.4273 1.36892 7.67697C1.21991 7.92666 1.14177 8.21224 1.14287 8.503V23.4972Z"
    fill="white" />
  <path
    d="M15.9928 23.4972C15.9917 23.788 16.0698 24.0737 16.2188 24.3233C16.3678 24.5731 16.582 24.7774 16.8385 24.9144C17.0905 25.0654 17.3789 25.1452 17.6728 25.1452C17.9666 25.1452 18.255 25.0654 18.507 24.9144L30.1184 17.3716C30.3449 17.2269 30.5314 17.0276 30.6606 16.7919C30.7897 16.5562 30.8574 16.2918 30.8574 16.023C30.8574 15.7542 30.7897 15.4898 30.6606 15.2541C30.5314 15.0184 30.3449 14.819 30.1184 14.6744L18.507 7.08586C18.255 6.93477 17.9666 6.85498 17.6728 6.85498C17.3789 6.85498 17.0905 6.93477 16.8385 7.08586C16.5888 7.21921 16.379 7.41642 16.2304 7.65736C16.0818 7.89827 15.9998 8.17432 15.9928 8.45729V23.4972Z"
    fill="white" />
</svg>
  